<svg width="24" height="23" xmlns="http://www.w3.org/2000/svg" xmlns:xlink="http://www.w3.org/1999/xlink" xmlns:svgjs="http://svgjs.com/svgjs" viewBox="0 0.02 24 22.96" fill="#fff"><svg xmlns="http://www.w3.org/2000/svg" width="24" height="23" viewBox="2 2 22.996 22"><path paint-order="stroke fill markers" fill-rule="evenodd" d="M2.85 3.793h2.44l3.473 13.242c.1.389.44.658.823.658h10.676c.34 0 .638-.21.78-.538l3.885-9.416a.95.95 0 0 0-.07-.852.834.834 0 0 0-.71-.403H12.351c-.468 0-.851.403-.851.896s.383.897.85.897h10.493l-3.148 7.622h-9.471L6.75 2.657A.859.859 0 0 0 5.928 2H2.85C2.383 2 2 2.403 2 2.897c0 .493.383.896.85.896zM8.778 24c1.064 0 1.929-.912 1.929-2.033 0-1.12-.865-2.032-1.929-2.032-1.063 0-1.928.911-1.928 2.032S7.714 24 8.777 24zm12.053 0h.141c.51-.045.979-.284 1.319-.702.34-.404.496-.927.468-1.48-.071-1.106-.993-1.958-2.056-1.883-1.063.074-1.857 1.06-1.787 2.167.071 1.06.908 1.898 1.915 1.898z"/></svg></svg>