<svg width="33" height="30" xmlns="http://www.w3.org/2000/svg" xmlns:xlink="http://www.w3.org/1999/xlink" xmlns:svgjs="http://svgjs.com/svgjs" viewBox="0 0.044 33 29.911" fill="#222"><svg xmlns="http://www.w3.org/2000/svg" width="33" height="30" viewBox="2 2 31.995 29"><path paint-order="stroke fill markers" fill-rule="evenodd" d="M3.184 4.364h3.393l4.833 17.455c.138.512.611.867 1.144.867h14.855c.473 0 .887-.276 1.084-.71L33.9 9.566a1.195 1.195 0 0 0-.099-1.123 1.176 1.176 0 0 0-.986-.532H16.4c-.651 0-1.184.532-1.184 1.182 0 .65.533 1.182 1.184 1.182h14.598l-4.38 10.048H13.443L8.609 2.867A1.183 1.183 0 0 0 7.464 2h-4.28C2.533 2 2 2.532 2 3.182c0 .65.533 1.182 1.184 1.182zM11.429 31a2.684 2.684 0 0 0 2.683-2.68 2.684 2.684 0 0 0-5.365 0A2.684 2.684 0 0 0 11.429 31zm16.769 0h.197a2.678 2.678 0 0 0 1.835-.926c.473-.532.69-1.222.65-1.95-.098-1.458-1.38-2.581-2.86-2.483-1.48.099-2.584 1.399-2.485 2.857.098 1.399 1.262 2.502 2.663 2.502z"/></svg></svg>