<svg width="27" height="25" xmlns="http://www.w3.org/2000/svg" xmlns:xlink="http://www.w3.org/1999/xlink" xmlns:svgjs="http://svgjs.com/svgjs" viewBox="0 0.036 27 24.927" fill="#ef5b70"><svg xmlns="http://www.w3.org/2000/svg" width="27" height="25" viewBox="2 1.999 25.996 24"><path paint-order="stroke fill markers" fill-rule="evenodd" d="M2.961 3.956h2.757l3.927 14.446a.964.964 0 0 0 .93.717h12.07a.963.963 0 0 0 .88-.587L27.919 8.26c.128-.31.096-.652-.08-.929a.95.95 0 0 0-.802-.44H13.7a.973.973 0 0 0-.961.978c0 .538.432.978.961.978h11.861l-3.558 8.315H11.296L7.37 2.717A.964.964 0 0 0 6.44 2H2.962A.973.973 0 0 0 2 2.978c0 .538.433.978.961.978zm6.7 22.043c1.202 0 2.18-.994 2.18-2.217 0-1.222-.978-2.217-2.18-2.217-1.202 0-2.18.994-2.18 2.217s.978 2.217 2.18 2.217zm13.624 0h.16a2.162 2.162 0 0 0 1.491-.766c.385-.44.561-1.01.53-1.614-.08-1.207-1.123-2.136-2.325-2.054-1.202.081-2.1 1.157-2.02 2.364.08 1.157 1.026 2.07 2.164 2.07z"/></svg></svg>