<svg width="46" height="33" xmlns="http://www.w3.org/2000/svg" xmlns:xlink="http://www.w3.org/1999/xlink" xmlns:svgjs="http://svgjs.com/svgjs" viewBox="0 0.144 46 32.711" fill="#f16d7f"><svg xmlns="http://www.w3.org/2000/svg" width="46" height="33" viewBox="2 2 45 32"><path paint-order="stroke fill markers" fill-rule="evenodd" d="M13.11 27.417a.934.934 0 0 0-.928.94.9.9 0 0 1-.892.904.9.9 0 0 1-.893-.904c0-.498.4-.903.893-.903.512 0 .928-.421.928-.94a.934.934 0 0 0-.928-.94c-1.517 0-2.75 1.248-2.75 2.783s1.233 2.784 2.75 2.784c1.516 0 2.749-1.249 2.749-2.784 0-.52-.416-.94-.929-.94zm26.472 0a.934.934 0 0 0-.929.94.9.9 0 0 1-.892.904.9.9 0 0 1-.893-.904c0-.498.4-.903.893-.903.513 0 .929-.421.929-.94a.934.934 0 0 0-.929-.94c-1.516 0-2.75 1.248-2.75 2.783s1.234 2.784 2.75 2.784 2.75-1.249 2.75-2.784c0-.52-.416-.94-.929-.94zm7.29-12.02L43.31 9.29c-1.22-2.062-2.373-3.266-4.679-3.47a.913.913 0 0 0-.237-.03h-7.123V3.88c0-1.037-.833-1.88-1.857-1.88H3.857C2.833 2 2 2.843 2 3.88v23.537c0 1.037.833 1.88 1.857 1.88h1.937C6.238 31.963 8.533 34 11.29 34c2.756 0 5.05-2.037 5.494-4.703h15.482C32.71 31.963 35.004 34 37.762 34c2.756 0 5.05-2.037 5.494-4.703h2.815c.513 0 .929-.42.929-.94V15.874a.95.95 0 0 0-.129-.478zm-3.537 3.601c0-.518.416-.94.928-.94h.88v1.85h-1.808v-.91zm1.25-3.823h-8.53a.923.923 0 0 0-.189-.019.954.954 0 0 1-.947-.96V10.43h6.9l2.767 4.745zM3.858 3.88h25.558v23.537h-12.63c-.444-2.665-2.738-4.702-5.495-4.702s-5.052 2.037-5.496 4.702H3.857V3.88zm7.433 28.24c-2.05 0-3.717-1.688-3.717-3.763s1.667-3.763 3.717-3.763c2.049 0 3.716 1.688 3.716 3.763S13.34 32.12 11.29 32.12zm26.472 0c-2.05 0-3.718-1.688-3.718-3.763s1.668-3.763 3.718-3.763c2.048 0 3.716 1.688 3.716 3.763s-1.667 3.763-3.716 3.763zm5.494-4.703c-.443-2.665-2.738-4.702-5.494-4.702-2.758 0-5.053 2.037-5.496 4.702h-.994V7.67h6.625c1.185 0 1.925.253 2.578.881H33.99a.934.934 0 0 0-.928.94v4.707c0 1.487 1.135 2.71 2.574 2.83a.92.92 0 0 0 .23.029h6.38a2.827 2.827 0 0 0-.768 1.942v1.85c0 .52.415.94.928.94h2.737v5.63h-1.887zM6.68 7.67h19.91c.513 0 .928-.42.928-.94a.934.934 0 0 0-.928-.94H6.68a.934.934 0 0 0-.928.94c0 .52.416.94.928.94z"/></svg></svg>