<svg width="48" height="36" xmlns="http://www.w3.org/2000/svg" xmlns:xlink="http://www.w3.org/1999/xlink" xmlns:svgjs="http://svgjs.com/svgjs" viewBox="0 0.151 48 35.699" fill="#f16d7f"><svg xmlns="http://www.w3.org/2000/svg" width="48" height="36" viewBox="1.984 1.011 47.032 34.978"><path paint-order="stroke fill markers" fill-rule="evenodd" d="M44.374 9.55c-2.564 0-4.647 2.038-4.647 4.541 0 1.343.607 2.54 1.56 3.372l-5.862 2.06-8.342-9.703c1.799-.627 3.098-2.29 3.098-4.265 0-2.504-2.084-4.544-4.647-4.544-2.56 0-4.646 2.04-4.646 4.544 0 1.955 1.277 3.608 3.046 4.251l-8.355 9.716-5.86-2.059c.952-.833 1.559-2.03 1.559-3.372 0-2.503-2.084-4.542-4.646-4.542-2.56 0-4.648 2.039-4.648 4.542 0 2.133 1.519 3.916 3.548 4.402v12.315c0 .087.031.16.05.242-.032.124-.05.253-.05.389 0 4.42 17.924 4.55 19.968 4.55 2.04 0 19.967-.13 19.967-4.55 0-.136-.019-.265-.05-.389.023-.082.05-.155.05-.242V18.493c2.033-.486 3.549-2.27 3.549-4.402.003-2.503-2.081-4.542-4.642-4.542zM23.149 5.556c0-1.287 1.071-2.334 2.387-2.334 1.313 0 2.385 1.047 2.385 2.334 0 1.287-1.072 2.333-2.385 2.333-1.316 0-2.387-1.046-2.387-2.333zm-7.593 16.308c.443.153.942.023 1.247-.33l8.698-10.12 8.7 10.12c.304.353.801.483 1.246.332l7.76-2.731v9.957c-4.886-2.126-16.114-2.205-17.707-2.205s-12.823.079-17.708 2.205v-9.958l7.764 2.73zm9.947 11.914c-8.708 0-14.254-1.013-16.562-1.865-.454-.167-.793-.333-.996-.475.721-.523 3.061-1.235 6.968-1.736 2.754-.354 6.28-.605 10.59-.605s7.836.25 10.591.605c3.906.5 6.248 1.213 6.967 1.736-.203.146-.541.308-.994.475-2.308.852-7.853 1.865-16.564 1.865zM4.249 14.09c0-1.285 1.071-2.331 2.387-2.331s2.386 1.046 2.386 2.331c0 1.287-1.07 2.334-2.386 2.334S4.25 15.378 4.25 14.091zm40.125 2.334c-1.316 0-2.387-1.047-2.387-2.334 0-1.285 1.071-2.331 2.387-2.331 1.313 0 2.387 1.046 2.387 2.331-.003 1.287-1.074 2.334-2.387 2.334z"/></svg></svg>