<svg width="41" height="41" xmlns="http://www.w3.org/2000/svg" xmlns:xlink="http://www.w3.org/1999/xlink" xmlns:svgjs="http://svgjs.com/svgjs" viewBox="0.005 0 40.989 41" fill="#f16d7f"><svg xmlns="http://www.w3.org/2000/svg" width="41" height="41" viewBox="1.003 1.998 39.993 40.004"><path paint-order="stroke fill markers" fill-rule="evenodd" d="M25.783 20.501c-1.894 0-3.46 1.632-3.46 4.564.021 2.909 1.566 4.361 3.349 4.361 1.83 0 3.415-1.52 3.415-4.587.001-2.772-1.298-4.338-3.304-4.338zm-.066 7.74c-1.19 0-1.895-1.409-1.873-3.265 0-1.834.661-3.288 1.873-3.288 1.343 0 1.85 1.475 1.85 3.244 0 1.922-.573 3.31-1.85 3.31zm-5.949-9.418c0-2.773-1.322-4.34-3.327-4.34-1.894 0-3.458 1.634-3.458 4.54.022 2.93 1.564 4.385 3.348 4.385 1.852 0 3.437-1.52 3.437-4.585zm-5.243.135c0-1.836.64-3.289 1.85-3.289 1.345 0 1.851 1.476 1.851 3.245 0 1.922-.573 3.31-1.85 3.31-1.21-.002-1.895-1.411-1.85-3.266zm10.09-4.32l-8.416 14.75h1.233l8.416-14.75h-1.233zm12.97 10.335l3.411-2.974-3.412-2.97 2.21-3.975-4.209-1.603.732-4.504-4.494-.045-.821-4.49-4.241 1.515-2.289-3.93L21 4.903l-3.472-2.904-2.289 3.928L11 4.411l-.822 4.49-4.495.044.733 4.504-4.21 1.603 2.21 3.974-3.412 2.973 3.412 2.972-2.21 3.975 4.21 1.601-.733 4.506 4.495.045.82 4.49 4.242-1.515 2.288 3.929L21 39.098l3.471 2.904 2.29-3.93L31 39.59l.82-4.49 4.496-.046-.733-4.502 4.21-1.605-2.209-3.973zm-2.666 3.774l-1.46.556.254 1.563.372 2.287-2.282.021-1.56.017-.286 1.558-.417 2.277-2.151-.77-1.469-.523-.792 1.36-1.16 1.993-1.763-1.474L21 36.604l-1.205 1.008-1.762 1.474-1.162-1.994-.793-1.36-1.468.524-2.153.769-.416-2.278-.285-1.558-1.561-.017-2.282-.022.371-2.289.255-1.562-1.46-.556-2.133-.812 1.12-2.014.767-1.379-1.183-1.03-1.734-1.51 1.735-1.511 1.183-1.031-.767-1.378-1.12-2.014 2.135-.813 1.459-.556-.254-1.562-.372-2.287 2.282-.022 1.56-.017.286-1.557.417-2.278 2.15.768 1.47.524.792-1.36 1.161-1.992 1.762 1.473 1.205 1.007 1.206-1.007 1.762-1.473 1.162 1.994.793 1.359 1.468-.524 2.152-.768.417 2.278.285 1.557 1.56.017 2.283.023-.372 2.286-.255 1.563 1.46.555 2.134.813-1.121 2.015-.767 1.379 1.184 1.03 1.733 1.508-1.734 1.513-1.183 1.03.766 1.378 1.12 2.014-2.133.815z"/></svg></svg>